<?xml version="1.0" encoding="UTF-8"?>
<!DOCTYPE svg PUBLIC "-//W3C//DTD SVG 1.1//EN" "http://www.w3.org/Graphics/SVG/1.1/DTD/svg11.dtd">
<!-- Creator: CorelDRAW -->
<svg xmlns="http://www.w3.org/2000/svg" xml:space="preserve" width="1.70666in" height="1.70666in" version="1.1" style="shape-rendering:geometricPrecision; text-rendering:geometricPrecision; image-rendering:optimizeQuality; fill-rule:evenodd; clip-rule:evenodd"
viewBox="0 0 1706.66 1706.66"
 xmlns:xlink="http://www.w3.org/1999/xlink"
 xmlns:xodm="http://www.corel.com/coreldraw/odm/2003">
 <defs>
  <style type="text/css">
   <![CDATA[
    .fil0 {fill:black}
   ]]>
  </style>
 </defs>
 <g id="Layer_x0020_1">
  <metadata id="CorelCorpID_0Corel-Layer"/>
  <path class="fil0" d="M1296.66 1706.66l-886.67 0c-93.61,0 -169.86,-76.25 -169.86,-169.86l0 -1182.5 1226.24 0 0 1182.5c0.14,93.61 -76.11,169.86 -169.72,169.86zm-729.02 -230.97c-37.64,0 -68.33,-30.69 -68.33,-68.33l0 -833.61c0,-37.64 30.69,-68.33 68.33,-68.33 37.78,0 68.33,30.69 68.33,68.33l0 833.47c0.14,37.78 -30.56,68.47 -68.33,68.47zm285.69 0c-37.63,0 -68.33,-30.69 -68.33,-68.33l0 -833.61c0,-37.64 30.69,-68.33 68.33,-68.33 37.78,0 68.33,30.69 68.33,68.33l0 833.47c0,37.78 -30.56,68.47 -68.33,68.47zm285.69 0c-37.64,0 -68.33,-30.69 -68.33,-68.33l0 -833.61c0,-37.64 30.69,-68.33 68.33,-68.33 37.64,0 68.33,30.69 68.33,68.33l0 833.47c-0,37.78 -30.7,68.47 -68.34,68.47z"/>
  <path class="fil0" d="M1593.46 314.31l-1480.27 0c-11.11,0 -20,-8.89 -20,-20l0 -119.86c0,-20.56 16.81,-37.36 37.36,-37.36l1445.55 0c20.56,0 37.36,16.81 37.36,37.36l0 119.86c0,11.11 -9.03,20 -20,20z"/>
  <path class="fil0" d="M1047.07 177.22l-387.49 0c-11.11,0 -20,-8.89 -20,-20l0 -119.86c0,-20.56 16.81,-37.36 37.36,-37.36l352.91 0c20.56,0 37.36,16.81 37.36,37.36l0 119.86c-0.14,10.97 -9.03,20 -20.14,20z"/>
 </g>
</svg>
